<svg width="250" height="100" viewBox="0 0 250 100" fill="none" xmlns="http://www.w3.org/2000/svg">
<rect width="99.9195" height="100" rx="16" fill="url(#paint0_radial_42_260)"/>
<path d="M93.791 30.3748C95.4479 30.3748 96.791 31.7179 96.791 33.3748V38.3455C96.791 40.0023 95.4478 41.3454 93.791 41.3455H91.2568C89.1876 41.3456 87.5099 42.9597 87.5098 44.9509V68.1238H77.5186V44.9509C77.5184 42.9597 75.8407 41.3456 73.7715 41.3455H26.3096C24.2403 41.3455 22.5626 42.9596 22.5625 44.9509V68.1238L12.5703 69.6863V44.9509C12.5702 42.9596 10.8926 41.3455 8.82324 41.3455H6.12207C4.4653 41.3454 3.12211 40.0022 3.12207 38.3455V33.3748C3.12207 31.7179 4.46528 30.3748 6.12207 30.3748H93.791Z" fill="url(#paint1_linear_42_260)"/>
<path d="M68.4053 45.8636C57.5441 60.0934 53.778 78.6948 63.0117 99.9994H16.0811C7.63829 99.9994 0.723603 93.4601 0.124023 85.1703C8.68863 70.9447 22.8614 57.3325 39.7129 45.8636H68.4053ZM100.001 22.8275C96.8609 24.0896 93.8095 25.5204 90.8799 27.1136H74.0332C82.6101 23.4419 91.3552 20.3993 100.001 18.1244V22.8275Z" fill="url(#paint2_linear_42_260)"/>
<path d="M135.047 45.3438C130.906 45.3438 127.141 43.5156 125.875 40.7344L129.922 36.7656C130.969 38.3125 132.922 39.25 135.031 39.25C136.453 39.25 137.844 38.7344 137.844 37.7031C137.844 36.4062 135.266 35.2656 132.797 34.1719C129.609 32.7969 126.875 30.7031 126.875 26.9062C126.875 22.5469 131.016 19.4375 135.797 19.4375C139.641 19.4375 142.641 21.25 143.625 23.7344L139.766 27.4531C139.016 26.125 137.078 25.5469 135.875 25.5469C134.5 25.5469 133.516 26.25 133.516 27.1094C133.516 28.2656 135.297 28.6406 138.016 29.7812C141.953 31.4375 144.562 33.8438 144.562 37.5625C144.562 42.3594 140.094 45.3438 135.047 45.3438ZM173.138 19.5781H175.825V45H169.138V35.0156L162.356 44.5781H162.309L155.513 35.0156V45H148.825V19.5781H151.513L162.325 34.3906L173.138 19.5781ZM198.806 45L197.541 42.0625H188.134L186.853 45H179.541L191.244 19.5H194.416L206.134 45H198.806ZM190.244 37.1719H195.416L192.838 31.2031L190.244 37.1719ZM231.131 45H223.303L216.569 34.0625V45H209.881L209.85 19.8125H219.412C224.85 19.8125 228.741 23.4844 228.741 28C228.741 31.1406 226.85 33.7656 224.381 34.8906L231.131 45ZM216.537 25.8281V30.875L219.272 30.8906C220.694 30.9062 221.991 29.9062 221.991 28.3594C221.991 26.7969 220.678 25.8281 219.272 25.8281H216.537ZM251.363 19.8125V26.0625H245.331V45H238.628V26.0625H232.581V19.8125H251.363ZM144.438 55.8125V62.0625H138.406V81H131.703V62.0625H125.656V55.8125H144.438ZM159.95 81.6406C152.122 81.6406 146.138 75.9375 146.138 68.4375C146.138 60.875 152.138 55.1406 159.966 55.1406C167.794 55.1406 173.794 60.875 173.794 68.4375C173.794 75.9375 167.794 81.6406 159.95 81.6406ZM159.966 75.25C163.966 75.25 167.028 72.2656 167.028 68.3906C167.028 64.5 163.966 61.5 159.966 61.5C155.966 61.5 152.903 64.5 152.903 68.3906C152.903 72.2656 155.966 75.25 159.966 75.25ZM184.963 74.7188H194.603V81H178.275V55.8125H184.963V74.7188ZM205.35 74.7188H214.991V81H198.662V55.8125H205.35V74.7188Z" fill="white"/>
<defs>
<radialGradient id="paint0_radial_42_260" cx="0" cy="0" r="1" gradientUnits="userSpaceOnUse" gradientTransform="translate(49.9597 50) scale(49.9597 50)">
<stop stop-color="#263238"/>
<stop offset="1" stop-color="#0D111D"/>
</radialGradient>
<linearGradient id="paint1_linear_42_260" x1="3.12207" y1="30.625" x2="87.451" y2="68.0749" gradientUnits="userSpaceOnUse">
<stop offset="0.475962" stop-color="#8B5CF6"/>
<stop offset="1" stop-color="#513690"/>
</linearGradient>
<linearGradient id="paint2_linear_42_260" x1="-33.0407" y1="-25.626" x2="147.032" y2="225.415" gradientUnits="userSpaceOnUse">
<stop offset="0.0630279" stop-color="white"/>
<stop offset="1" stop-color="#8B5CF6"/>
</linearGradient>
</defs>
</svg>
